<svg xmlns="http://www.w3.org/2000/svg" xmlns:xlink="http://www.w3.org/1999/xlink"><defs>
    <style>
      .cls-1 {
        fill: #23242a;
        fill-rule: evenodd;
      }
    </style>
  </defs><symbol id="icon-font-size-minus" viewBox="0 0 24.591 24.591">
<g>
	<path style="fill:#030104;" d="M24.591,12.278v0.947c0,0.524-0.423,0.947-0.947,0.947h-6.629c-0.524,0-0.947-0.423-0.947-0.947
		v-0.947c0-0.524,0.423-0.947,0.947-0.947h6.629C24.168,11.331,24.591,11.754,24.591,12.278z M15.043,20.173
		c0.05,0.203,0.058,0.358,0.026,0.458c-0.035,0.1-0.143,0.153-0.326,0.153h-3.105c-0.284,0-0.476-0.065-0.577-0.191
		c-0.1-0.129-0.192-0.33-0.275-0.599l-0.804-2.982H4.914l-0.838,3.057c-0.084,0.272-0.192,0.461-0.326,0.562
		c-0.133,0.1-0.317,0.153-0.551,0.153H0.421c-0.184,0-0.309-0.038-0.375-0.115c-0.068-0.076-0.06-0.258,0.025-0.548L4.903,4.547
		c0.083-0.238,0.183-0.421,0.3-0.55C5.319,3.871,5.545,3.806,5.88,3.806h3.155c0.35,0,0.58,0.07,0.688,0.205
		c0.108,0.136,0.204,0.323,0.288,0.561L15.043,20.173z M9.217,14.172L7.53,7.918H7.406l-1.714,6.254H9.217z"/>
</g>
<g>
</g>
<g>
</g>
<g>
</g>
<g>
</g>
<g>
</g>
<g>
</g>
<g>
</g>
<g>
</g>
<g>
</g>
<g>
</g>
<g>
</g>
<g>
</g>
<g>
</g>
<g>
</g>
<g>
</g>
</symbol><symbol id="icon-font-size-plus" viewBox="0 0 24.966 24.966">
<g>
	<path style="fill:#030104;" d="M24.966,12.466v0.961c0,0.532-0.43,0.961-0.961,0.961h-1.923v1.923c0,0.532-0.43,0.961-0.961,0.961
		H20.16c-0.532,0-0.961-0.43-0.961-0.961v-1.923h-1.923c-0.532,0-0.961-0.43-0.961-0.961v-0.961c0-0.532,0.43-0.961,0.961-0.961
		h1.923V9.582c0-0.532,0.43-0.961,0.961-0.961h0.961c0.532,0,0.961,0.43,0.961,0.961v1.923h1.923
		C24.536,11.504,24.966,11.934,24.966,12.466z M15.272,20.482c0.051,0.206,0.059,0.364,0.026,0.465
		c-0.036,0.102-0.145,0.156-0.331,0.156h-3.153c-0.288,0-0.484-0.066-0.586-0.194c-0.102-0.131-0.195-0.335-0.279-0.608
		l-0.816-3.028H4.989l-0.85,3.104c-0.086,0.276-0.195,0.468-0.331,0.57c-0.136,0.102-0.322,0.156-0.56,0.156H0.427
		c-0.187,0-0.314-0.038-0.381-0.117c-0.069-0.077-0.061-0.262,0.025-0.557L4.978,4.617c0.085-0.241,0.186-0.428,0.305-0.559
		C5.4,3.93,5.629,3.864,5.97,3.864h3.203c0.356,0,0.588,0.071,0.699,0.209c0.11,0.138,0.207,0.328,0.292,0.569L15.272,20.482z
		 M9.357,14.389l-1.712-6.35H7.519l-1.74,6.35H9.357z"/>
</g>
<g>
</g>
<g>
</g>
<g>
</g>
<g>
</g>
<g>
</g>
<g>
</g>
<g>
</g>
<g>
</g>
<g>
</g>
<g>
</g>
<g>
</g>
<g>
</g>
<g>
</g>
<g>
</g>
<g>
</g>
</symbol><symbol id="icon-search" viewBox="0 0 31 31">

  <path id="&#x424;&#x438;&#x433;&#x443;&#x440;&#x430;_1" data-name="&#x424;&#x438;&#x433;&#x443;&#x440;&#x430; 1" class="cls-1" d="M483.731,633.419l-7.535-7.534a13.229,13.229,0,1,0-1.307,1.307l7.535,7.533a0.935,0.935,0,0,0,.653.275,0.91,0.91,0,0,0,.654-0.275A0.93,0.93,0,0,0,483.731,633.419Zm-28.882-16.2a11.364,11.364,0,1,1,11.364,11.369A11.375,11.375,0,0,1,454.849,617.218Z" transform="translate(-453 -604)"/>
</symbol><symbol id="icon-triagle" viewBox="0 0 16 13"><g><g><path fill="#00aeef" d="M8.245 13.254L.765.297h14.961z"/></g></g></symbol></svg>
