<svg xmlns="http://www.w3.org/2000/svg" xmlns:xlink="http://www.w3.org/1999/xlink"><defs>
    <style>
      .cls-1 {
        fill: #23242a;
        fill-rule: evenodd;
      }
    </style>
  </defs><symbol id="icon-font-size-minus" viewBox="0 0 25 18">
    <!-- Generator: Sketch 59.1 (86144) - https://sketch.com -->
    <title>A-</title>
    <desc>Created with Sketch.</desc>
    <g id="Page-1" stroke="none" stroke-width="1" fill="none" fill-rule="evenodd" font-family="PTSans-Regular, PT Sans" font-size="24" font-weight="normal" letter-spacing="-0.24">
        <g id="Artboard" transform="translate(-58.000000, -49.000000)" fill="#414147">
            <text id="A-">
                <tspan x="58.38" y="67">A-</tspan>
            </text>
        </g>
    </g>
</symbol><symbol id="icon-font-size-plus" viewBox="0 0 25 18">
    <!-- Generator: Sketch 59.1 (86144) - https://sketch.com -->
    <title>A+</title>
    <desc>Created with Sketch.</desc>
    <g id="Page-1" stroke="none" stroke-width="1" fill="none" fill-rule="evenodd" font-family="PTSans-Regular, PT Sans" font-size="24" font-weight="normal" letter-spacing="-0.24">
        <g id="Artboard" transform="translate(-56.000000, -49.000000)" fill="#414147">
            <text id="A+">
                <tspan x="56.16" y="67">A+</tspan>
            </text>
        </g>
    </g>
</symbol><symbol id="icon-search" viewBox="0 0 31 31">
  
  <path id="&#x424;&#x438;&#x433;&#x443;&#x440;&#x430;_1" data-name="&#x424;&#x438;&#x433;&#x443;&#x440;&#x430; 1" class="cls-1" d="M483.731,633.419l-7.535-7.534a13.229,13.229,0,1,0-1.307,1.307l7.535,7.533a0.935,0.935,0,0,0,.653.275,0.91,0.91,0,0,0,.654-0.275A0.93,0.93,0,0,0,483.731,633.419Zm-28.882-16.2a11.364,11.364,0,1,1,11.364,11.369A11.375,11.375,0,0,1,454.849,617.218Z" transform="translate(-453 -604)"/>
</symbol><symbol id="icon-triagle" viewBox="0 0 16 13"><g><g><path fill="#00aeef" d="M8.245 13.254L.765.297h14.961z"/></g></g></symbol></svg>