<svg xmlns="http://www.w3.org/2000/svg" xmlns:xlink="http://www.w3.org/1999/xlink"><symbol id="icon-font-size-minus" viewBox="0 0 25 25"><g fill="none" fill-rule="evenodd"><rect height="24" rx="5" stroke="#414147" width="24" x=".5" y=".5"/><path d="m10.862 14.284h-3.612l-.98 2.716h-1.148l3.71-9.954h.532l3.724 9.954h-1.218zm-3.234-1.008h2.884l-1.092-2.982-.35-1.484h-.014l-.35 1.512zm5.992-1.512h5.936v1.008h-5.936z" fill="#414147" fill-rule="nonzero"/></g></symbol><symbol id="icon-font-size-plus" viewBox="0 0 25 25"><g fill="none" fill-rule="evenodd"><rect height="24" rx="5" stroke="#414147" width="24" x=".5" y=".5"/><path d="m10.862 14.284h-3.612l-.98 2.716h-1.148l3.71-9.954h.532l3.724 9.954h-1.218zm-3.234-1.008h2.884l-1.092-2.982-.35-1.484h-.014l-.35 1.512zm5.992-1.512h2.464v-2.52h1.008v2.52h2.464v1.008h-2.464v2.52h-1.008v-2.52h-2.464z" fill="#414147" fill-rule="nonzero"/></g></symbol><symbol id="icon-search" viewBox="0 0 31 31"><path d="m483.731 633.419-7.535-7.534a13.229 13.229 0 1 0 -1.307 1.307l7.535 7.533a.935.935 0 0 0 .653.275.91.91 0 0 0 .654-.275.93.93 0 0 0 0-1.306zm-28.882-16.2a11.364 11.364 0 1 1 11.364 11.369 11.375 11.375 0 0 1 -11.364-11.37z" fill="#23242a" fill-rule="evenodd" transform="translate(-453 -604)"/></symbol><symbol id="icon-triagle" viewBox="0 0 16 13"><path d="m8.245 13.254-7.48-12.957h14.961z" fill="#00aeef"/></symbol></svg>